<svg width="22" height="22" viewBox="0 0 22 22" fill="none" xmlns="http://www.w3.org/2000/svg">
<mask id="mask0_2_146" style="mask-type:alpha" maskUnits="userSpaceOnUse" x="0" y="0" width="22" height="22">
<rect width="22" height="22" fill="#D9D9D9"/>
</mask>
<g mask="url(#mask0_2_146)">
<path d="M7.33333 9.97755C7.55779 9.97755 7.74905 9.89852 7.90712 9.74045C8.06518 9.58239 8.14421 9.39113 8.14421 9.16666C8.14421 8.9422 8.06518 8.75094 7.90712 8.59288C7.74905 8.43481 7.55779 8.35578 7.33333 8.35578C7.10887 8.35578 6.91761 8.43481 6.75954 8.59288C6.60148 8.75094 6.52245 8.9422 6.52245 9.16666C6.52245 9.39113 6.60148 9.58239 6.75954 9.74045C6.91761 9.89852 7.10887 9.97755 7.33333 9.97755ZM11 9.97755C11.2245 9.97755 11.4157 9.89852 11.5738 9.74045C11.7318 9.58239 11.8109 9.39113 11.8109 9.16666C11.8109 8.9422 11.7318 8.75094 11.5738 8.59288C11.4157 8.43481 11.2245 8.35578 11 8.35578C10.7755 8.35578 10.5843 8.43481 10.4262 8.59288C10.2681 8.75094 10.1891 8.9422 10.1891 9.16666C10.1891 9.39113 10.2681 9.58239 10.4262 9.74045C10.5843 9.89852 10.7755 9.97755 11 9.97755ZM14.6667 9.97755C14.8911 9.97755 15.0824 9.89852 15.2405 9.74045C15.3985 9.58239 15.4775 9.39113 15.4775 9.16666C15.4775 8.9422 15.3985 8.75094 15.2405 8.59288C15.0824 8.43481 14.8911 8.35578 14.6667 8.35578C14.4422 8.35578 14.2509 8.43481 14.0929 8.59288C13.9348 8.75094 13.8558 8.9422 13.8558 9.16666C13.8558 9.39113 13.9348 9.58239 14.0929 9.74045C14.2509 9.89852 14.4422 9.97755 14.6667 9.97755ZM2.29169 19.2852V3.94875C2.29169 3.48571 2.4521 3.09377 2.77294 2.77294C3.09377 2.4521 3.48571 2.29169 3.94875 2.29169H18.0512C18.5143 2.29169 18.9062 2.4521 19.2271 2.77294C19.5479 3.09377 19.7083 3.48571 19.7083 3.94875V14.3846C19.7083 14.8476 19.5479 15.2396 19.2271 15.5604C18.9062 15.8812 18.5143 16.0416 18.0512 16.0416H5.53527L2.29169 19.2852ZM4.95002 14.6667H18.0512C18.1218 14.6667 18.1864 14.6373 18.2452 14.5785C18.304 14.5198 18.3333 14.4551 18.3333 14.3846V3.94875C18.3333 3.87822 18.304 3.81358 18.2452 3.7548C18.1864 3.69604 18.1218 3.66666 18.0512 3.66666H3.94875C3.87822 3.66666 3.81358 3.69604 3.7548 3.7548C3.69604 3.81358 3.66666 3.87822 3.66666 3.94875V15.9359L4.95002 14.6667Z" fill="white"/>
</g>
</svg>
