<svg width="20" height="20" viewBox="0 0 20 20" fill="none" xmlns="http://www.w3.org/2000/svg">
<circle cx="10" cy="10" r="5.83333" fill="#4AFF5C"/>
<mask id="mask0_2_43" style="mask-type:alpha" maskUnits="userSpaceOnUse" x="0" y="0" width="20" height="20">
<rect width="20" height="20" fill="#D9D9D9"/>
</mask>
<g mask="url(#mask0_2_43)">
<path d="M10.0028 17.5C8.96567 17.5 7.9906 17.3032 7.07758 16.9096C6.16457 16.516 5.37037 15.9818 4.69498 15.3071C4.0196 14.6323 3.48493 13.8389 3.09096 12.9267C2.69699 12.0145 2.5 11.0399 2.5 10.0028C2.5 8.96567 2.69688 7.9906 3.09063 7.07758C3.48438 6.16457 4.01875 5.37037 4.69375 4.69498C5.36875 4.0196 6.1625 3.48493 7.075 3.09096C7.9875 2.69699 8.9625 2.5 10 2.5C10.8529 2.5 11.6599 2.63194 12.4209 2.89583C13.182 3.15972 13.8761 3.52778 14.5032 4L13.9039 4.62019C13.3547 4.21208 12.7507 3.89557 12.0917 3.67067C11.4328 3.44578 10.7356 3.33333 10 3.33333C8.15278 3.33333 6.57986 3.98264 5.28125 5.28125C3.98264 6.57986 3.33333 8.15278 3.33333 10C3.33333 11.8472 3.98264 13.4201 5.28125 14.7188C6.57986 16.0174 8.15278 16.6667 10 16.6667C11.8472 16.6667 13.4201 16.0174 14.7188 14.7188C16.0174 13.4201 16.6667 11.8472 16.6667 10C16.6667 9.66453 16.6421 9.33551 16.593 9.01294C16.5438 8.69037 16.4701 8.37676 16.3718 8.07212L17.0369 7.39102C17.1896 7.80341 17.305 8.22651 17.383 8.66031C17.461 9.09412 17.5 9.54068 17.5 10C17.5 11.0375 17.3032 12.0125 16.9096 12.925C16.516 13.8375 15.9818 14.6312 15.3071 15.3062C14.6323 15.9812 13.8389 16.5156 12.9267 16.9094C12.0145 17.3031 11.0399 17.5 10.0028 17.5ZM8.80129 13.2564L5.83654 10.2917L6.42629 9.70192L8.80129 12.0769L16.9103 3.96315L17.5 4.55288L8.80129 13.2564Z" fill="#1C1B1F"/>
</g>
</svg>
