<svg width="16" height="17" viewBox="0 0 16 17" fill="none" xmlns="http://www.w3.org/2000/svg">
<mask id="mask0_21_62" style="mask-type:alpha" maskUnits="userSpaceOnUse" x="0" y="0" width="16" height="17">
<rect y="0.0112305" width="16" height="16" fill="#D9D9D9"/>
</mask>
<g mask="url(#mask0_21_62)">
<path d="M8 14.6778C7.07778 14.6778 6.21111 14.5028 5.4 14.1528C4.58889 13.8028 3.88333 13.3278 3.28333 12.7278C2.68333 12.1278 2.20833 11.4223 1.85833 10.6111C1.50833 9.80004 1.33333 8.93337 1.33333 8.01115C1.33333 7.08893 1.50833 6.22226 1.85833 5.41115C2.20833 4.60004 2.68333 3.89448 3.28333 3.29448C3.88333 2.69448 4.58889 2.21948 5.4 1.86948C6.21111 1.51948 7.07778 1.34448 8 1.34448C8.92222 1.34448 9.78889 1.51948 10.6 1.86948C11.4111 2.21948 12.1167 2.69448 12.7167 3.29448C13.3167 3.89448 13.7917 4.60004 14.1417 5.41115C14.4917 6.22226 14.6667 7.08893 14.6667 8.01115C14.6667 8.93337 14.4917 9.80004 14.1417 10.6111C13.7917 11.4223 13.3167 12.1278 12.7167 12.7278C12.1167 13.3278 11.4111 13.8028 10.6 14.1528C9.78889 14.5028 8.92222 14.6778 8 14.6778ZM8 13.3445C9.48889 13.3445 10.75 12.8278 11.7833 11.7945C12.8167 10.7611 13.3333 9.50004 13.3333 8.01115C13.3333 6.52226 12.8167 5.26115 11.7833 4.22782C10.75 3.19448 9.48889 2.67782 8 2.67782C6.51111 2.67782 5.25 3.19448 4.21667 4.22782C3.18333 5.26115 2.66667 6.52226 2.66667 8.01115C2.66667 9.50004 3.18333 10.7611 4.21667 11.7945C5.25 12.8278 6.51111 13.3445 8 13.3445Z" fill="#1C1B1F"/>
</g>
</svg>
