<svg width="37" height="37" viewBox="0 0 37 37" fill="none" xmlns="http://www.w3.org/2000/svg">
<g filter="url(#filter0_d_5_114)">
<path d="M32.0746 7.54525C31.9089 7.33832 31.7382 7.1348 31.5625 6.93486C28.7552 3.73933 24.8819 1.6793 20.668 1.14065C16.4542 0.601991 12.189 1.62166 8.67139 4.00866L13.7073 11.4645C15.4151 10.3056 17.4858 9.81056 19.5316 10.0721C21.5774 10.3336 23.4579 11.3337 24.8209 12.8852C25.1264 13.2329 25.4012 13.603 25.6437 13.9912L21.186 18.4592H36V3.61076L32.0746 7.54525Z" fill="#1C3AA9"/>
</g>
<g filter="url(#filter1_d_5_114)">
<path d="M18.4186 1.00061H3.60467L7.48492 4.88989C4.58535 7.23862 2.50104 10.4661 1.55888 14.1083C0.492706 18.2299 0.96225 22.5996 2.87955 26.3991L10.8954 22.3353C9.96452 20.4906 9.73656 18.3691 10.2542 16.3681C10.7718 14.3671 11.9995 12.6239 13.7073 11.465C13.7747 11.4193 13.8426 11.3746 13.9111 11.331L18.4186 15.849V1.00061Z" fill="#4285F4"/>
</g>
<g filter="url(#filter2_d_5_114)">
<path d="M1 18.6224H15.8139L11.3382 23.1086C12.2873 24.582 13.6729 25.7316 15.3109 26.3884C17.2257 27.1562 19.3542 27.198 21.2975 26.5058C23.2408 25.8137 24.8657 24.4351 25.8678 22.6284L32.3468 29.1061C30.3037 31.7938 27.5154 33.8465 24.3052 34.9899C20.3025 36.4155 15.9185 36.3296 11.9744 34.7481C9.19996 33.6356 6.7771 31.8367 4.91669 29.5451L1 33.4709V18.6224Z" fill="#ABABAB"/>
</g>
<defs>
<filter id="filter0_d_5_114" x="7.67139" y="0" width="29.3286" height="19.4592" filterUnits="userSpaceOnUse" color-interpolation-filters="sRGB">
<feFlood flood-opacity="0" result="BackgroundImageFix"/>
<feColorMatrix in="SourceAlpha" type="matrix" values="0 0 0 0 0 0 0 0 0 0 0 0 0 0 0 0 0 0 127 0" result="hardAlpha"/>
<feOffset/>
<feGaussianBlur stdDeviation="0.5"/>
<feColorMatrix type="matrix" values="0 0 0 0 0 0 0 0 0 0 0 0 0 0 0 0 0 0 0.38 0"/>
<feBlend mode="normal" in2="BackgroundImageFix" result="effect1_dropShadow_5_114"/>
<feBlend mode="normal" in="SourceGraphic" in2="effect1_dropShadow_5_114" result="shape"/>
</filter>
<filter id="filter1_d_5_114" x="0" y="0.000610352" width="19.4186" height="27.3985" filterUnits="userSpaceOnUse" color-interpolation-filters="sRGB">
<feFlood flood-opacity="0" result="BackgroundImageFix"/>
<feColorMatrix in="SourceAlpha" type="matrix" values="0 0 0 0 0 0 0 0 0 0 0 0 0 0 0 0 0 0 127 0" result="hardAlpha"/>
<feOffset/>
<feGaussianBlur stdDeviation="0.5"/>
<feColorMatrix type="matrix" values="0 0 0 0 0 0 0 0 0 0 0 0 0 0 0 0 0 0 0.38 0"/>
<feBlend mode="normal" in2="BackgroundImageFix" result="effect1_dropShadow_5_114"/>
<feBlend mode="normal" in="SourceGraphic" in2="effect1_dropShadow_5_114" result="shape"/>
</filter>
<filter id="filter2_d_5_114" x="0" y="17.6224" width="33.3468" height="19.3776" filterUnits="userSpaceOnUse" color-interpolation-filters="sRGB">
<feFlood flood-opacity="0" result="BackgroundImageFix"/>
<feColorMatrix in="SourceAlpha" type="matrix" values="0 0 0 0 0 0 0 0 0 0 0 0 0 0 0 0 0 0 127 0" result="hardAlpha"/>
<feOffset/>
<feGaussianBlur stdDeviation="0.5"/>
<feColorMatrix type="matrix" values="0 0 0 0 0 0 0 0 0 0 0 0 0 0 0 0 0 0 0.38 0"/>
<feBlend mode="normal" in2="BackgroundImageFix" result="effect1_dropShadow_5_114"/>
<feBlend mode="normal" in="SourceGraphic" in2="effect1_dropShadow_5_114" result="shape"/>
</filter>
</defs>
</svg>
